<svg height="100%" version="1.1" viewBox="0 0 190 190" xmlns="http://www.w3.org/2000/svg">
 <defs>
  <filter id="filter1489" x="-.036643" y="-.034048" width="1.0733" height="1.0681" style="color-interpolation-filters:sRGB">
   <feGaussianBlur stdDeviation="1.311533"/>
  </filter>
  <filter id="filter1493" x="-.069439" y="-.037156" width="1.1389" height="1.0743" style="color-interpolation-filters:sRGB">
   <feGaussianBlur stdDeviation="1.311533"/>
  </filter>
  <filter id="filter1663" x="-.19782" y="-.10585" width="1.3956" height="1.2117" style="color-interpolation-filters:sRGB">
   <feGaussianBlur stdDeviation="3.7362686"/>
  </filter>
  <filter id="filter2159" x="-.11399" y="-.10592" width="1.228" height="1.2118" style="color-interpolation-filters:sRGB">
   <feGaussianBlur stdDeviation="4.0801427"/>
  </filter>
 </defs>
 <g transform="translate(0 -18)">
  <g id="beam-note">
   <path d="m60.72 146.99 0.0821-60.648v0l56.154-8.7106v61.154m-56.154-52.444-0.0405-12.662v0l56.154-8.7105 0.0405 12.662m0.0233 60.932c0 5.7588-6.6357 10.427-14.821 10.427-8.1856 0-14.821-4.6685-14.821-10.427 0-5.7588 6.6357-10.427 14.821-10.427 8.1856 0 14.821 4.6685 14.821 10.427zm-56.26 8.4264c-1.5392 5.5493-6.6357 10.427-14.821 10.427s-14.821-4.6685-14.821-10.427c1e-5 -5.7588 6.6357-10.427 14.821-10.427s16.505 4.3566 14.821 10.427z" style="fill:none;filter:url(#filter2159);stroke-linecap:round;stroke-linejoin:round;stroke-width:5.292;stroke:#ffe680"/>
   <path d="m60.684 146.3 0.0821-60.648v0l56.154-8.7106v61.154m-56.154-52.444-0.0405-12.662v0l56.154-8.7105 0.0405 12.662m0.0233 60.932c0 5.7588-6.6357 10.427-14.821 10.427-8.1856 0-14.821-4.6685-14.821-10.427 0-5.7588 6.6357-10.427 14.821-10.427 8.1856 0 14.821 4.6685 14.821 10.427zm-56.26 8.4264c-1.5392 5.5493-6.6357 10.427-14.821 10.427s-14.821-4.6685-14.821-10.427c1e-5 -5.7588 6.6357-10.427 14.821-10.427s16.505 4.3566 14.821 10.427z" style="fill:none;filter:url(#filter1489);stroke-linecap:round;stroke-linejoin:round;stroke-width:4.2333;stroke:#ffe680"/>
   <path d="m60.72 146.99 0.08213-60.648v0l56.154-8.7105v61.154m-56.154-52.444-0.040516-12.662v0l56.154-8.7105 0.0405 12.662m0.0233 60.932c0 5.7588-6.6357 10.427-14.821 10.427-8.1856 0-14.821-4.6685-14.821-10.427s6.6357-10.427 14.821-10.427c8.1856 0 14.821 4.6685 14.821 10.427zm-56.26 8.4264c-1.5392 5.5493-6.6357 10.427-14.821 10.427s-14.821-4.6685-14.821-10.427c4e-6 -5.7588 6.6357-10.427 14.821-10.427s16.505 4.3566 14.821 10.427z" style="fill:none;stroke-linecap:round;stroke-linejoin:round;stroke-width:1.058;stroke:#fff6d5"/>
  </g>
  <g id="quaver">
   <path d="m140.18 89.595c0.79343 3.409 2.4549 6.6123 4.7845 9.2246 1.7887 2.0058 3.9415 3.6471 5.9152 5.4713 1.9736 1.8242 3.815 3.9058 4.7287 6.4332 0.69037 1.9096 0.8128 4.0205 0.3478 5.9971s-1.5157 3.8116-2.985 5.213m-12.612 42.414-0.17919-74.753m0.14336 74.065a14.71 10.65 0 0 1-14.71 10.65 14.71 10.65 0 0 1-14.71-10.65 14.71 10.65 0 0 1 14.71-10.65 14.71 10.65 0 0 1 14.71 10.65z" style="fill:none;filter:url(#filter1663);stroke-width:5.292;stroke:#ffe680"/>
   <path d="m140.15 88.906c0.79343 3.409 2.4549 6.6123 4.7845 9.2246 1.7887 2.0058 3.9416 3.6471 5.9152 5.4713s3.815 3.9058 4.7287 6.4332c0.69037 1.9096 0.8128 4.0205 0.34781 5.9971-0.465 1.9766-1.5157 3.8116-2.985 5.213m-12.612 42.414-0.1792-74.753m0.14337 74.065a14.71 10.65 0 0 1-14.71 10.65 14.71 10.65 0 0 1-14.71-10.65 14.71 10.65 0 0 1 14.71-10.65 14.71 10.65 0 0 1 14.71 10.65z" style="fill:none;filter:url(#filter1493);stroke-width:4.2333;stroke:#ffe680"/>
   <path d="m140.18 89.595c0.79343 3.409 2.4549 6.6123 4.7845 9.2246 1.7887 2.0058 3.9416 3.6471 5.9152 5.4713s3.815 3.9058 4.7287 6.4332c0.69037 1.9096 0.8128 4.0205 0.34781 5.9971-0.465 1.9766-1.5157 3.8116-2.985 5.213m-12.612 42.414-0.1792-74.753m0.14337 74.065a14.71 10.65 0 0 1-14.71 10.65 14.71 10.65 0 0 1-14.71-10.65 14.71 10.65 0 0 1 14.71-10.65 14.71 10.65 0 0 1 14.71 10.65z" style="fill:none;stroke-width:1.058;stroke:#fff6d5"/>
  </g>
 </g>
</svg>
