<?xml version="1.0" encoding="UTF-8"?>
<svg width="210mm" height="297mm" version="1.1" viewBox="0 0 210 297" xmlns="http://www.w3.org/2000/svg" xmlns:osb="http://www.openswatchbook.org/uri/2009/osb" xmlns:xlink="http://www.w3.org/1999/xlink">
 <defs>
  <linearGradient id="linearGradient4889" osb:paint="solid">
   <stop style="stop-color:#ffd70d" offset="0"/>
  </linearGradient>
  <linearGradient id="linearGradient4891" x1="111.1" x2="131.12" y1="186.46" y2="186.46" gradientTransform="translate(1.0583 -.52917)" gradientUnits="userSpaceOnUse" xlink:href="#linearGradient4889"/>
  <linearGradient id="linearGradient4893" x1="92.573" x2="110.5" y1="183.97" y2="183.97" gradientTransform="translate(1.0583 -.52917)" gradientUnits="userSpaceOnUse" xlink:href="#linearGradient4889"/>
 </defs>
 <g>
  <g>
   <path d="m124.7 42.396c-5.237 0-9.9849 2.844-13.844 6.8507-3.8587 4.0068-6.8896 9.2153-8.7617 14.32l2.5952 1.0299c1.7386-4.7403 4.6114-9.6518 8.1287-13.304 3.5173-3.6523 7.6182-6.0064 11.881-6.0064 10.457 2e-6 19.464 8.3722 21.752 19.503 0.0571 0.56449 0.23952 2.3556 0.55966 5.4085 2e-4 0.04264 1e-3 0.08495 1e-3 0.12764 0 0.67505 0.10493 1.3601 0.22686 2.0438 0.18619 1.7543 0.38833 3.6372 0.60461 5.6064 0.79996 7.2839 1.708 15.126 2.282 17.977l0.0176 0.08785 0.03 0.08578c2.8081 7.9737 5.4011 16.522 7.289 23.07 0.38296 1.3322 0.76528 2.6835 1.1431 4.0318a1.2445 1.2445 0 0 0 1e-3 5e-3c2.1454 9.1145 6.0806 24.549 5.8844 35.984-0.0911 5.3069-3.1825 13.479-6.7247 21.194-3.5422 7.7142-7.4718 14.99-9.1834 19.195a1.2445 1.2445 0 1 0 2.3048 0.93741c1.5837-3.8911 5.5555-11.288 9.1405-19.095 3.5851-7.8076 6.8449-16.005 6.951-22.188 0.16812-9.7972-2.4582-21.839-4.594-30.885-4e-3 -0.0193-9e-3 -0.0397-0.0139-0.0594-0.48282-2.0439-0.9483-3.9845-1.341-5.6529a1.2445 1.2445 0 0 0-0.28888-0.56328c-0.28947-1.1296-0.60376-2.3267-0.97719-3.622-1.8857-6.5407-4.4771-15.07-7.2931-23.08-0.49265-2.4626-1.4432-10.453-2.2397-17.705-0.0408-0.37185-0.0756-0.70365-0.11575-1.0713 0.13167-1.142-0.0396-2.279-0.20464-3.3771-0.18798-1.2513-0.39378-2.4576-0.39378-3.1548 0-15.221-11.07-27.692-24.818-27.692z" style="color-rendering:auto;color:#000000;dominant-baseline:auto;fill:#ffd70d;font-feature-settings:normal;font-variant-alternates:normal;font-variant-caps:normal;font-variant-ligatures:normal;font-variant-numeric:normal;font-variant-position:normal;image-rendering:auto;isolation:auto;mix-blend-mode:normal;paint-order:markers stroke fill;shape-padding:0;shape-rendering:auto;solid-color:#000000;text-decoration-color:#000000;text-decoration-line:none;text-decoration-style:solid;text-indent:0;text-orientation:mixed;text-transform:none;white-space:normal"/>
   <path d="m111.14 187.96a6.1481 9.9511 89.716 0 1-0.53682 0.28256 6.1481 9.9511 89.716 0 1-13.975-0.98094 6.1481 9.9511 89.716 0 1 1.6569-8.6395 6.1481 9.9511 89.716 0 1 12.007-0.18239" style="fill:none;stroke-linecap:round;stroke-width:2.3;stroke:url(#linearGradient4893)"/>
   <path d="m118.47 88.277c-9e-3 -0.0038-0.0172-0.0076-0.0258-0.01138-10.237-4.5353-1.6074-1.8549-22.177-4.6505-6.6349-0.90176 0.50955-12.264 7.5688-14.651 8.1518-3.1988 15.703 2.6875 18.122 9.0298" style="fill:none;stroke-linecap:round;stroke-width:2.6777;stroke:#ffd70d"/>
   <path d="m129.35 228.7c-1.7641 8.0426-6.717 12.909-9.3986 14.318-5.0558 2.6555-9.1991-1.6174-3.4137-20.872 2.0694-6.8874 2.7972-11.759 1.0454-20.016" style="fill:none;stroke-linecap:round;stroke-width:2.1474;stroke:#664be8"/>
   <path d="m138 223.55c1.574 4.3045 1.5506 4.4127 1.7447 6.8971 2.427 19.41-8.2139 24.845-11.916 9.0149" style="fill:none;stroke-linecap:round;stroke-width:2.3;stroke:#664be8"/>
   <g>
    <path d="m138.81 97.431c-0.34977-0.0057-0.7082-0.0037-1.0759 0.0047h-5.3e-4c-1.4708 0.03352-3.0882 0.17486-4.8901 0.38447-4.6883 0.5454-10.994 3.6586-13.524 11.986s-1.4001 21.583 7.9241 42.735c8.186 18.57 11.864 15.053 18.416 60.59-3e-3 0.31646 0.12086 0.62117 0.34365 0.84595 0.0131 0.031-7.9e-4 0.0448 0.0134 0.076 2.0445 4.4993 3.4096 6.5178 4.4964 9.7968 0.23186 0.69957 0.48646 1.3585 0.70125 1.9963l0.0155 0.0429c2.2522 5.917 3.6418 10.116 4.4121 13.061 1.7012 7.9945-2.7992 7.3737-6.0451 2.3652-1.9916-3.0978-4.1492-7.7012-5.9278-12.983-0.97041-2.8816-1.7638-5.7811-2.3182-8.4667-0.32013-1.5498-2.6445-1.0692-2.3244 0.48059 0.57654 2.793 1.3934 5.7772 2.3926 8.7442 1.8302 5.4346 4.0362 10.17 6.182 13.508 2.1484 4.8139 10.154 6.3028 11.131 2.1601 0.25186-1.4298 0.0122-3.3249-0.79478-6.4099-0.80441-3.075-2.2183-7.3286-4.4747-13.26l-0.0155-0.0429c-0.23227-0.68573-0.4786-1.329-0.68161-1.9415-1.1798-3.5599-2.5992-5.6566-4.5878-10.033 0.0413 0.0429-0.0484-0.0499 0 0-6.5588-45.515-10.573-43.371-18.592-61.56-9.1946-20.858-10.063-33.572-7.8186-40.959 2.2444-7.3877 7.4861-9.7376 11.371-10.19 3.5099-0.40831 6.1817-0.50614 8.1385-0.14625 1.9568 0.35989 3.183 1.0765 4.24 2.5177 2.114 2.8823 3.2188 9.1855 4.3574 20.482 0.17148 1.6984 2.7186 1.4405 2.5471-0.25787-1.1435-11.347-2.005-17.868-4.8421-21.737-1.4186-1.9341-3.4146-3.0753-5.8394-3.5212-0.90932-0.16724-1.8807-0.25102-2.9301-0.2682z" style="color-rendering:auto;color:#000000;dominant-baseline:auto;fill:#664be8;font-feature-settings:normal;font-variant-alternates:normal;font-variant-caps:normal;font-variant-ligatures:normal;font-variant-numeric:normal;font-variant-position:normal;image-rendering:auto;isolation:auto;mix-blend-mode:normal;shape-padding:0;shape-rendering:auto;solid-color:#000000;text-decoration-color:#000000;text-decoration-line:none;text-decoration-style:solid;text-indent:0;text-orientation:mixed;text-transform:none;white-space:normal"/>
   </g>
   <path d="m96.75 175.17a12.206 23.31 16.694 0 1-4.0603-11.617 12.206 23.31 16.694 0 1 0.32556-6.0252" style="fill:none;stroke-linecap:round;stroke-width:2.7;stroke:#ffd70d"/>
   <path d="m131.71 190.93a6.8022 11.111 89.722 0 1-0.59938 0.31261 6.8022 11.111 89.722 0 1-15.604-1.0853 6.8022 11.111 89.722 0 1 1.85-9.5585 6.8022 11.111 89.722 0 1 13.406-0.20181" style="fill:none;stroke-linecap:round;stroke-width:2.3;stroke:url(#linearGradient4891)"/>
   <g>
    <path d="m92.053 120.67 4.2347-21.297-5.9315-1.1796v0l-4.2276 21.261" style="fill:none;stroke-linecap:round;stroke-width:2.5;stroke:#f09"/>
    <path d="m83.043 133.89-1.4354 7.2186 1.3264 8.1838 4.6052-7.0042 1.394-7.0103" style="fill:none;stroke-linecap:round;stroke-width:2.5;stroke:#f09"/>
    <path d="m99.482 113.77a9.5911 14.69 4.491 0 1-9.465 11.948 9.5911 14.69 4.491 0 1-9.4716-12.768" style="fill:none;stroke-linecap:round;stroke-width:1.8989;stroke:#664be8"/>
    <path d="m102.44 120.92a13.387 16.239 10.336 0 1-12.432 10.344 13.387 16.239 10.336 0 1-12.782-10.688" style="fill:none;stroke-linecap:round;stroke-width:2.3588;stroke:#664be8"/>
   </g>
   <path d="m131.95 57.905a13.658 7.0641 85.585 0 1 4.7423 5.037 13.658 7.0641 85.585 0 1 1.1716 3.2641" style="fill:none;stroke-linecap:round;stroke-width:2.5;stroke:#00d70d"/>
  </g>
 </g>
</svg>
