<svg width="78.999" height="100%" version="1.1" viewBox="0 0 65.356 92.527" xmlns="http://www.w3.org/2000/svg">
 <defs>
  <filter id="filter1530" x="-.065526" y="-.059852" width="1.1311" height="1.1197" style="color-interpolation-filters:sRGB">
   <feGaussianBlur stdDeviation="1.3451735"/>
  </filter>
  <filter id="filter1534" x="-.061349" y="-.11893" width="1.1227" height="1.2379" style="color-interpolation-filters:sRGB">
   <feGaussianBlur stdDeviation="1.3451735"/>
  </filter>
  <filter id="filter1916" x="-.12922" y="-.11803" width="1.2584" height="1.2361" style="color-interpolation-filters:sRGB">
   <feGaussianBlur stdDeviation="2.652645"/>
  </filter>
  <filter id="filter1920" x="-.12098" y="-.23452" width="1.242" height="1.469" style="color-interpolation-filters:sRGB">
   <feGaussianBlur stdDeviation="2.652645"/>
  </filter>
 </defs>
 <g transform="translate(-40.958 -22.256)">
  <g id="fruit">
   <path d="m54.196 100.29c0.60725-0.6431 1.5089-1.1091 2.493-1.2262 0.98405-0.11715 2.0383 0.13238 2.7479 0.70136 0.53379 0.42806 0.8512 1.0018 1.1151 1.5734 0.26393 0.57165 0.49007 1.1619 0.88682 1.6799 0.54745 0.71471 1.4251 1.2649 2.4258 1.4722 1.0006 0.2073 2.1138 0.0581 2.953-0.43274 0.7592-0.44408 1.2572-1.1252 1.6474-1.8181 0.39023-0.69284 0.69702-1.4205 1.183-2.0717 0.35976-0.48208 0.81998-0.92023 1.3887-1.2412 0.56873-0.32098 1.2504-0.52024 1.9417-0.51465 0.55975 0.0047 1.1125 0.14274 1.598 0.37037 0.48545 0.22763 0.90508 0.54267 1.2525 0.90113 0.69477 0.71691 1.0955 1.5918 1.4297 2.4644 0.24439 0.6382 0.46442 1.2938 0.9012 1.8594 0.21839 0.28281 0.49095 0.54058 0.82256 0.73667 0.3316 0.1961 0.72424 0.32876 1.1324 0.35469 0.56803 0.0361 1.1382-0.13781 1.5884-0.42293 0.45022-0.28511 0.78844-0.67481 1.0421-1.0914 0.50724-0.83324 0.69209-1.7746 1.1608-2.6228 0.2134-0.3862 0.4867-0.75288 0.83772-1.0649 0.35101-0.31203 0.78192-0.56846 1.2676-0.71758 0.4656-0.14296 0.9752-0.18478 1.4685-0.13284 0.49335 0.05191 1.7663 0.82768 2.19 1.0405m-40.208-8.4374c0.37792-0.91276 0.74405-1.8504 1.4143-2.6203 0.71026-0.81591 1.7649-1.4071 2.9159-1.5558 1.151-0.14863 2.3841 0.16794 3.214 0.88984 0.62434 0.54309 0.9956 1.271 1.3043 1.9963 0.30871 0.72527 0.57321 1.4741 1.0373 2.1313 0.64032 0.90677 1.6669 1.6048 2.8373 1.8678s2.4724 0.07379 3.454-0.54903c0.88799-0.56341 1.4705-1.4276 1.9269-2.3066s0.81526-1.8022 1.3837-2.6284c0.42079-0.61163 0.95909-1.1675 1.6243-1.5747 0.66521-0.40722 1.4626-0.66004 2.2711-0.65295 0.65471 0.0058 1.3013 0.1811 1.8691 0.4699 0.5678 0.2888 1.0586 0.6885 1.4649 1.1433 0.81263 0.90956 1.2814 2.0195 1.6722 3.1266 0.28585 0.8097 0.54321 1.6415 1.0541 2.3591 0.25544 0.3588 0.57424 0.68582 0.9621 0.93462 0.38785 0.2488 0.8471 0.41711 1.3245 0.44999 0.66439 0.04576 1.3312-0.17483 1.8578-0.53657 0.5266-0.36174 0.92219-0.85614 1.2188-1.3847 0.59329-1.0571 0.8095-2.2515 1.3577-3.3276 0.2496-0.48999 0.56927-0.95519 0.97983-1.3511 0.41056-0.39587 0.91456-0.72121 1.4826-0.91041 0.54458-0.18138 1.1406-0.23443 1.7177-0.16854 0.57704 0.06589 1.1346 0.24931 1.6302 0.51932 0.99113 0.54002 2.8187 2.1488 3.2359 3.1109m-40.506-28.007c1.151-0.14863 2.3841 0.16794 3.214 0.88984 0.62434 0.54309 0.9956 1.271 1.3043 1.9963s0.57321 1.4741 1.0373 2.1313c0.64032 0.90677 1.6669 1.6048 2.8373 1.8678s2.4724 0.07379 3.454-0.54903c0.88799-0.56341 1.4705-1.4276 1.9269-2.3066s0.81526-1.8022 1.3837-2.6284c0.42079-0.61163 0.95909-1.1675 1.6243-1.5747 0.66521-0.40722 1.4626-0.66004 2.2711-0.65295 0.65471 0.0058 1.3013 0.1811 1.8691 0.4699 0.5678 0.2888 1.0586 0.6885 1.4649 1.1433 0.81263 0.90956 1.2814 2.0195 1.6722 3.1266 0.28585 0.8097 0.54321 1.6415 1.0541 2.3591 0.25544 0.3588 0.57424 0.68582 0.9621 0.93462 0.38785 0.2488 0.8471 0.41711 1.3245 0.44999 0.66439 0.04576 1.3312-0.17483 1.8578-0.53657 0.5266-0.36174 0.92219-0.85614 1.2188-1.3847 0.59329-1.0571 0.8095-2.2515 1.3577-3.3276 0.2496-0.48999 0.56927-0.95519 0.97983-1.3511 0.41056-0.39587 0.91456-0.72121 1.4826-0.91041 0.54458-0.18138 1.1406-0.23443 1.7177-0.16854m-42.385 20.757c0.74312-0.80772 2.0271-2.6508 2.405-3.6812 0.37792-1.0304 0.74405-2.089 1.4143-2.9581 0.71026-0.92112 1.7649-1.5886 2.9159-1.7564s2.3841 0.1896 3.214 1.0046c0.62434 0.61312 0.9956 1.4349 1.3043 2.2537 0.30871 0.81878 0.57321 1.6642 1.0373 2.4061 0.64032 1.0237 1.6669 1.8117 2.8373 2.1086 1.1704 0.29692 2.4724 0.0833 3.454-0.61982 0.88799-0.63606 1.4705-1.6117 1.9269-2.604 0.45643-0.99235 0.81526-2.0346 1.3837-2.9674 0.42079-0.6905 0.95909-1.318 1.6243-1.7778s1.4626-0.74515 2.2711-0.73714c0.65472 0.0065 1.3013 0.20446 1.8691 0.53049 0.5678 0.32604 1.0586 0.77727 1.4649 1.2907 0.81263 1.0268 1.2814 2.2799 1.6722 3.5297 0.28585 0.9141 0.54322 1.8532 1.0541 2.6633 0.25544 0.40506 0.57424 0.77426 0.9621 1.0551 0.38786 0.28088 0.8471 0.47089 1.3245 0.50801 0.66439 0.05166 1.3312-0.19737 1.8578-0.60575 0.5266-0.40838 0.92219-0.96654 1.2188-1.5633 0.59328-1.1935 0.80949-2.5418 1.3577-3.7567 0.2496-0.55317 0.56927-1.0783 0.97984-1.5253 0.41056-0.44692 0.91456-0.8142 1.4826-1.0278 0.54459-0.20477 1.1406-0.26465 1.7177-0.19026 0.57703 0.07439 1.1346 0.28145 1.6302 0.58628 0.99113 0.60965 1.7158 1.5987 2.133 2.6849 0.46863 1.22 0.57508 2.5664 1.1384 3.7457 0.40842 0.85502 0.49962 1.8142 1.3844 2.1533m-0.25346-4.2509c0 15.938-10.973 28.859-24.508 28.859s-24.508-12.92-24.508-28.859c0-15.938 11.315-25.081 24.851-25.081 13.535 0 24.165 9.1426 24.165 25.081z" style="fill:none;stroke-width:1.2888;stroke:#ffe613"/>
   <path d="m54.196 100.29c0.60725-0.6431 1.5089-1.1091 2.493-1.2263 0.98405-0.11715 2.0383 0.13238 2.7479 0.70137 0.53379 0.42806 0.8512 1.0018 1.1151 1.5734 0.26393 0.57165 0.49007 1.1619 0.88682 1.6799 0.54745 0.71471 1.4251 1.2649 2.4258 1.4722 1.0006 0.2073 2.1138 0.0581 2.953-0.43274 0.7592-0.44408 1.2572-1.1252 1.6474-1.8181 0.39023-0.69284 0.69702-1.4205 1.183-2.0717 0.35976-0.48208 0.81998-0.92023 1.3887-1.2412 0.56873-0.32098 1.2504-0.52025 1.9417-0.51466 0.55975 5e-3 1.1125 0.14274 1.598 0.37038 0.48545 0.22763 0.90508 0.54267 1.2525 0.90112 0.69477 0.71691 1.0955 1.5918 1.4296 2.4644 0.24439 0.6382 0.46442 1.2938 0.9012 1.8594 0.21839 0.28281 0.49095 0.54058 0.82256 0.73667 0.33159 0.1961 0.72424 0.32876 1.1324 0.35469 0.56803 0.0361 1.1382-0.13781 1.5884-0.42293 0.45023-0.28511 0.78844-0.67481 1.0421-1.0914 0.50724-0.83324 0.69209-1.7746 1.1608-2.6228 0.2134-0.3862 0.48671-0.75288 0.83772-1.0649 0.35101-0.31203 0.78192-0.56846 1.2676-0.71758 0.46559-0.14297 0.97519-0.18478 1.4685-0.13284 0.49335 0.0519 1.7664 0.82768 2.19 1.0405m-40.208-8.4375c0.37792-0.91276 0.74405-1.8504 1.4143-2.6203 0.71026-0.81591 1.7649-1.4071 2.9159-1.5558 1.151-0.14862 2.3841 0.16795 3.214 0.88985 0.62434 0.54308 0.9956 1.271 1.3043 1.9963 0.30871 0.72527 0.57321 1.4741 1.0373 2.1312 0.64032 0.90677 1.6669 1.6048 2.8373 1.8678s2.4724 0.0738 3.454-0.54903c0.88799-0.56342 1.4705-1.4276 1.9269-2.3066 0.45643-0.87902 0.81526-1.8022 1.3837-2.6284 0.42079-0.61163 0.95909-1.1675 1.6243-1.5747 0.66521-0.40722 1.4626-0.66004 2.2711-0.65296 0.65471 6e-3 1.3013 0.18111 1.8691 0.46991 0.5678 0.28879 1.0586 0.68849 1.4649 1.1433 0.81263 0.90956 1.2814 2.0195 1.6722 3.1266 0.28585 0.8097 0.54321 1.6415 1.0541 2.3591 0.25544 0.3588 0.57424 0.68582 0.9621 0.93462 0.38785 0.24879 0.8471 0.41711 1.3245 0.44999 0.66439 0.0458 1.3312-0.17483 1.8578-0.53657s0.92219-0.85614 1.2188-1.3847c0.59329-1.0572 0.8095-2.2515 1.3577-3.3276 0.2496-0.48999 0.56927-0.95519 0.97983-1.3511s0.91456-0.72121 1.4826-0.9104c0.54458-0.18139 1.1406-0.23443 1.7177-0.16854 0.57704 0.0659 1.1346 0.24931 1.6302 0.51932 0.99113 0.54001 2.8187 2.1488 3.2359 3.1109m-40.506-28.007c1.151-0.14862 2.3841 0.16795 3.214 0.88984 0.62434 0.54309 0.9956 1.271 1.3043 1.9963 0.30871 0.72527 0.57321 1.4741 1.0373 2.1313 0.64032 0.90677 1.6669 1.6048 2.8373 1.8678 1.1704 0.263 2.4724 0.0738 3.454-0.54903 0.88799-0.56342 1.4705-1.4276 1.9269-2.3066 0.45643-0.87902 0.81526-1.8022 1.3837-2.6284 0.42079-0.61163 0.95909-1.1675 1.6243-1.5747 0.66521-0.40722 1.4626-0.66004 2.2711-0.65296 0.65471 6e-3 1.3013 0.18111 1.8691 0.4699 0.5678 0.2888 1.0586 0.6885 1.4649 1.1433 0.81263 0.90956 1.2814 2.0195 1.6722 3.1266 0.28585 0.8097 0.54321 1.6415 1.0541 2.3591 0.25544 0.35881 0.57424 0.68583 0.9621 0.93463 0.38785 0.24879 0.8471 0.4171 1.3245 0.44999 0.66439 0.0458 1.3312-0.17483 1.8578-0.53657s0.92219-0.85615 1.2188-1.3847c0.59329-1.0572 0.8095-2.2515 1.3577-3.3276 0.2496-0.48999 0.56927-0.95519 0.97983-1.3511s0.91456-0.72121 1.4826-0.91041c0.54458-0.18138 1.1406-0.23442 1.7177-0.16853m-42.385 20.757c0.74312-0.80772 2.0271-2.6508 2.405-3.6812 0.37792-1.0304 0.74405-2.089 1.4143-2.9581 0.71026-0.92112 1.7649-1.5886 2.9159-1.7564 1.151-0.16779 2.3841 0.1896 3.214 1.0046 0.62434 0.61311 0.9956 1.4349 1.3043 2.2537 0.30871 0.81878 0.57321 1.6642 1.0373 2.406 0.64032 1.0237 1.6669 1.8117 2.8373 2.1086 1.1704 0.29692 2.4724 0.0833 3.454-0.61982 0.88799-0.63606 1.4705-1.6117 1.9269-2.604 0.45643-0.99236 0.81526-2.0346 1.3837-2.9674 0.42079-0.6905 0.95909-1.318 1.6243-1.7778s1.4626-0.74515 2.2711-0.73715c0.65472 6e-3 1.3013 0.20446 1.8691 0.53049 0.5678 0.32604 1.0586 0.77727 1.4649 1.2907 0.81263 1.0268 1.2814 2.2799 1.6722 3.5297 0.28585 0.9141 0.54322 1.8532 1.0541 2.6633 0.25544 0.40506 0.57424 0.77425 0.9621 1.0551 0.38786 0.28087 0.8471 0.47088 1.3245 0.50801 0.66439 0.0517 1.3312-0.19737 1.8578-0.60575 0.5266-0.40839 0.92219-0.96654 1.2188-1.5633 0.59329-1.1934 0.8095-2.5418 1.3577-3.7567 0.2496-0.55316 0.56927-1.0784 0.97983-1.5253 0.41056-0.44692 0.91456-0.81421 1.4826-1.0278 0.54459-0.20477 1.1406-0.26465 1.7177-0.19026 0.57703 0.0744 1.1346 0.28145 1.6302 0.58627 0.99113 0.60965 1.7158 1.5987 2.133 2.6849 0.46863 1.22 0.57508 2.5664 1.1384 3.7457 0.40842 0.85502 0.49962 1.8142 1.3844 2.1533m-0.25346-4.2509c0 15.938-10.973 28.859-24.508 28.859-13.535 0-24.508-12.921-24.508-28.859 0-15.938 11.315-25.081 24.851-25.081 13.535 0 24.165 9.1426 24.165 25.081z" style="fill:none;filter:url(#filter1530);stroke-width:1.2888;stroke:#ffe613"/>
   <path d="m54.196 100.29c0.60725-0.6431 1.509-1.1091 2.493-1.2262 0.98405-0.11715 2.0383 0.13238 2.7479 0.70137 0.5338 0.42806 0.85121 1.0018 1.1151 1.5734s0.49007 1.1619 0.88682 1.6799c0.54744 0.71471 1.4251 1.2649 2.4258 1.4722s2.1138 0.0581 2.953-0.43274c0.7592-0.44408 1.2572-1.1252 1.6474-1.8181 0.39023-0.69284 0.69701-1.4205 1.183-2.0717 0.35976-0.48208 0.81999-0.92023 1.3887-1.2412 0.56873-0.32098 1.2504-0.52025 1.9417-0.51466 0.55975 5e-3 1.1125 0.14274 1.598 0.37038 0.48544 0.22763 0.90508 0.54267 1.2525 0.90112 0.69477 0.71691 1.0955 1.5918 1.4296 2.4644 0.24439 0.6382 0.46442 1.2938 0.9012 1.8594 0.21839 0.28281 0.49095 0.54058 0.82256 0.73667 0.33159 0.1961 0.72424 0.32876 1.1324 0.35469 0.56803 0.0361 1.1382-0.13781 1.5884-0.42293 0.45023-0.28511 0.78844-0.67481 1.0421-1.0914 0.50724-0.83324 0.69209-1.7746 1.1607-2.6228 0.2134-0.3862 0.48671-0.75288 0.83772-1.0649 0.35101-0.31203 0.78192-0.56846 1.2676-0.71758 0.46559-0.14297 0.97519-0.18478 1.4685-0.13284 0.49335 0.0519 1.7664 0.82768 2.19 1.0405m-40.208-8.4375c0.37793-0.91276 0.74405-1.8504 1.4143-2.6203 0.71026-0.81591 1.7649-1.4071 2.9159-1.5558 1.151-0.14862 2.3841 0.16795 3.214 0.88985 0.62435 0.54308 0.99561 1.271 1.3043 1.9963 0.30871 0.72527 0.57321 1.4741 1.0373 2.1312 0.64032 0.90677 1.6669 1.6048 2.8373 1.8678s2.4724 0.0738 3.454-0.54903c0.88799-0.56342 1.4705-1.4276 1.9269-2.3066 0.45643-0.87902 0.81526-1.8022 1.3837-2.6284 0.42079-0.61163 0.95909-1.1675 1.6243-1.5747 0.66521-0.40722 1.4626-0.66004 2.2711-0.65296 0.65471 6e-3 1.3013 0.18111 1.8691 0.46991 0.5678 0.28879 1.0586 0.68849 1.4649 1.1433 0.81263 0.90956 1.2814 2.0195 1.6722 3.1266 0.28585 0.8097 0.54321 1.6415 1.0541 2.3591 0.25544 0.3588 0.57424 0.68582 0.9621 0.93462 0.38785 0.24879 0.8471 0.41711 1.3245 0.44999 0.66439 0.0458 1.3312-0.17483 1.8578-0.53657 0.5266-0.36174 0.92219-0.85614 1.2188-1.3847 0.59329-1.0572 0.8095-2.2515 1.3577-3.3276 0.2496-0.48999 0.56927-0.95519 0.97983-1.3511s0.91456-0.72121 1.4826-0.9104c0.54458-0.18139 1.1406-0.23443 1.7177-0.16854 0.57704 0.0659 1.1346 0.24931 1.6302 0.51932 0.99113 0.54001 2.8187 2.1488 3.2359 3.1109m-40.506-28.007c1.151-0.14862 2.3841 0.16795 3.214 0.88984 0.62434 0.54309 0.9956 1.271 1.3043 1.9963 0.30871 0.72527 0.57321 1.4741 1.0372 2.1313 0.64032 0.90677 1.6669 1.6048 2.8373 1.8678 1.1704 0.263 2.4724 0.0738 3.454-0.54903 0.88799-0.56342 1.4705-1.4276 1.9269-2.3066 0.45643-0.87902 0.81526-1.8022 1.3837-2.6285 0.42079-0.61163 0.95909-1.1675 1.6243-1.5747 0.66521-0.40722 1.4626-0.66004 2.2711-0.65296 0.65471 6e-3 1.3013 0.18111 1.8691 0.4699 0.56781 0.2888 1.0586 0.6885 1.465 1.1433 0.81263 0.90956 1.2814 2.0195 1.6722 3.1266 0.28585 0.8097 0.54321 1.6415 1.0541 2.3591 0.25544 0.35881 0.57424 0.68583 0.9621 0.93463 0.38785 0.24879 0.8471 0.4171 1.3245 0.44999 0.66439 0.0458 1.3312-0.17483 1.8578-0.53657 0.5266-0.36174 0.92219-0.85615 1.2188-1.3847 0.59329-1.0572 0.8095-2.2515 1.3577-3.3276 0.2496-0.48999 0.56927-0.95519 0.97983-1.3511 0.41056-0.39587 0.91456-0.72121 1.4826-0.91041 0.54458-0.18138 1.1406-0.23442 1.7177-0.16853m-42.385 20.757c0.74312-0.80772 2.0271-2.6508 2.405-3.6812 0.37792-1.0304 0.74405-2.0889 1.4143-2.9581 0.71026-0.92112 1.7649-1.5886 2.9159-1.7564 1.151-0.16779 2.3841 0.1896 3.214 1.0046 0.62434 0.61311 0.9956 1.4349 1.3043 2.2537 0.30871 0.81878 0.57321 1.6642 1.0373 2.406 0.64032 1.0237 1.6669 1.8117 2.8373 2.1086 1.1704 0.29692 2.4724 0.0833 3.454-0.61982 0.88799-0.63606 1.4705-1.6117 1.9269-2.604 0.45643-0.99236 0.81526-2.0346 1.3837-2.9674 0.42079-0.6905 0.95909-1.3181 1.6243-1.7778 0.66521-0.45973 1.4626-0.74515 2.2711-0.73715 0.65471 6e-3 1.3013 0.20446 1.8691 0.53049 0.5678 0.32604 1.0586 0.77727 1.4649 1.2907 0.81263 1.0268 1.2814 2.2799 1.6722 3.5297 0.28585 0.9141 0.54322 1.8532 1.0541 2.6633 0.25544 0.40506 0.57424 0.77425 0.9621 1.0551 0.38786 0.28087 0.8471 0.47088 1.3245 0.50801 0.66439 0.05171 1.3312-0.19737 1.8578-0.60575 0.5266-0.40839 0.92219-0.96654 1.2188-1.5633 0.59329-1.1934 0.8095-2.5418 1.3577-3.7567 0.2496-0.55316 0.56927-1.0784 0.97983-1.5253 0.41056-0.44692 0.91456-0.81421 1.4826-1.0278 0.54459-0.20477 1.1406-0.26465 1.7177-0.19026 0.57703 0.0744 1.1346 0.28145 1.6302 0.58627 0.99113 0.60965 1.7158 1.5987 2.133 2.6849 0.46863 1.22 0.57508 2.5664 1.1384 3.7457 0.40842 0.85502 0.49962 1.8142 1.3844 2.1533m-0.25346-4.2509c0 15.938-10.973 28.859-24.508 28.859-13.535 0-24.508-12.92-24.508-28.859 0-15.938 11.315-25.081 24.851-25.081 13.535 0 24.165 9.1426 24.165 25.081z" style="fill:none;filter:url(#filter1916);stroke-width:1.2888;stroke:#ffe613"/>
  </g>
  <g id="leaves">
   <path d="m68.331 43.231c-0.40992-1.4097-0.64951-2.9552-1.2466-4.4465-2.3614-5.8976-5.2308-10.111-6.4091-9.4117l-2e-6 1e-6c-1.1782 0.69966-0.21902 6.0478 2.1424 11.945 1.4572 2.7417 2.3174 5.1873 2.2737 7.2858m-0.3817-0.0788c-1.08 0.36341-4.1422-3.0587-5.6145-5.0755-4.0687-5.5736-10.519-6.6212-11.585-4.8747-1.0664 1.7465 2.5753 3.9279 7.907 8.3666 3.0596 2.5471 7.5148 5.1118 9.6091 6.3957m11.648-7.3728c1.9267-2.7943 1.1021-1.2185 2.2253-4.0769 0.53373-1.2749 0.91625-2.7396 1.6618-4.0405 2.9483-5.1448 6.3632-8.4752 7.6273-7.4387l2e-6 2e-6c1.2641 1.0365-0.10124 6.0474-3.0496 11.192-1.7683 2.2867-2.8593 4.4549-2.9301 6.5438m-13.878-4.9133c0.87823 1.7398 2.3121 4.2914 2.7547 4.42 0.80427 0.23368 0.58504-2.2411 0.50496-2.4625-0.67515-1.8666-0.59629-1.6885-0.62323-7.8673-0.02694-6.1788 1.3931-10.85 3.1717-10.433 1.7786 0.41705 4.0618 5.9057 3.2692 11.943m0 0c-0.46501 3.5423-3.0652 7.6202-0.73365 7.133m5.5347 2.1799c1.0524 0.65958 4.2759-1.8896 5.8456-3.4839 4.3382-4.406 10.796-3.6608 11.761-1.6322 0.9645 2.0286-3.4807 4.041-9.0115 6.9711-3.1737 1.6813-6.4459 3.3147-8.5936 4.0095" style="fill:none;stroke-linecap:round;stroke-linejoin:round;stroke-width:1.3791;stroke:#0f6"/>
   <path d="m68.331 43.231c-0.40992-1.4097-0.64951-2.9552-1.2466-4.4465-2.3614-5.8976-5.2308-10.111-6.4091-9.4117l-2e-6 1e-6c-1.1782 0.69966-0.21902 6.0478 2.1424 11.945 1.4572 2.7417 2.3174 5.1873 2.2737 7.2858m-0.3817-0.0788c-1.08 0.3634-4.1422-3.0587-5.6145-5.0755-4.0687-5.5736-10.519-6.6212-11.585-4.8747-1.0664 1.7465 2.5753 3.9279 7.907 8.3666 3.0596 2.5471 7.5148 5.1118 9.6091 6.3957m11.648-7.3728c1.9266-2.7943 1.102-1.2185 2.2253-4.0769 0.53373-1.2749 0.91625-2.7396 1.6618-4.0405 2.9483-5.1448 6.3632-8.4752 7.6273-7.4387v2e-6c1.2641 1.0365-0.10125 6.0474-3.0496 11.192-1.7683 2.2867-2.8593 4.4549-2.9301 6.5438m-13.878-4.9133c0.87823 1.7398 2.3121 4.2915 2.7547 4.42 0.80427 0.23368 0.58504-2.2411 0.50496-2.4625-0.67515-1.8666-0.59629-1.6885-0.62323-7.8673-0.02694-6.1788 1.3931-10.85 3.1717-10.433 1.7786 0.41705 4.0618 5.9057 3.2692 11.943m0 0c-0.46501 3.5423-3.0652 7.6202-0.73365 7.133m5.5347 2.1798c1.0524 0.65958 4.2758-1.8896 5.8456-3.4838 4.3382-4.406 10.796-3.6608 11.761-1.6322 0.96449 2.0285-3.4808 4.041-9.0115 6.971-3.1737 1.6814-6.4459 3.3147-8.5936 4.0094" style="fill:none;filter:url(#filter1534);stroke-linecap:round;stroke-linejoin:round;stroke-width:1.3791;stroke:#0f6"/>
   <path d="m68.331 43.231c-0.40992-1.4097-0.64951-2.9552-1.2466-4.4465-2.3614-5.8976-5.2308-10.111-6.409-9.4117v1e-6c-1.1782 0.69966-0.21902 6.0478 2.1424 11.945 1.4572 2.7417 2.3174 5.1873 2.2737 7.2858m-0.38169-0.0788c-1.08 0.3634-4.1422-3.0587-5.6145-5.0755-4.0687-5.5736-10.519-6.6212-11.585-4.8747-1.0664 1.7465 2.5753 3.9279 7.907 8.3666 3.0596 2.5471 7.5148 5.1118 9.6091 6.3957m11.648-7.3728c1.9266-2.7943 1.102-1.2185 2.2253-4.0769 0.53373-1.2749 0.91625-2.7396 1.6618-4.0405 2.9483-5.1448 6.3632-8.4752 7.6273-7.4387v2e-6c1.2641 1.0365-0.10125 6.0474-3.0496 11.192-1.7683 2.2867-2.8593 4.4549-2.9301 6.5438m-13.878-4.9133c0.87824 1.7398 2.3122 4.2915 2.7547 4.42 0.80427 0.23368 0.58504-2.2411 0.50495-2.4625-0.67515-1.8666-0.59629-1.6885-0.62323-7.8673-0.0269-6.1788 1.3931-10.85 3.1717-10.433 1.7786 0.41705 4.0618 5.9057 3.2692 11.943m0 0c-0.46501 3.5423-3.0652 7.6202-0.73365 7.133m5.5347 2.1798c1.0524 0.65958 4.2758-1.8896 5.8456-3.4838 4.3382-4.406 10.796-3.6608 11.761-1.6322 0.96449 2.0285-3.4808 4.041-9.0115 6.971-3.1737 1.6813-6.4459 3.3147-8.5936 4.0094" style="fill:none;filter:url(#filter1920);stroke-linecap:round;stroke-linejoin:round;stroke-width:1.3791;stroke:#0f6"/>
  </g>
 </g>
</svg>
