<svg height="100%" version="1.1" viewBox="0 0 250 250" xmlns="http://www.w3.org/2000/svg">
 <defs>
  <filter id="filter2149" x="-.17595" y="-.15123" width="1.3519" height="1.3025" style="color-interpolation-filters:sRGB">
   <feGaussianBlur stdDeviation="2.347544"/>
  </filter>
  <filter id="filter2153" x="-.44919" y="-.52227" width="1.8984" height="2.0445" style="color-interpolation-filters:sRGB">
   <feGaussianBlur stdDeviation="4.2732212"/>
  </filter>
  <filter id="filter2157" x="-.44919" y="-.52227" width="1.8984" height="2.0445" style="color-interpolation-filters:sRGB">
   <feGaussianBlur stdDeviation="4.2732212"/>
  </filter>
  <filter id="filter2161" x="-.063664" y="-.10838" width="1.1273" height="1.2168" style="color-interpolation-filters:sRGB">
   <feGaussianBlur stdDeviation="4.2732212"/>
  </filter>
  <filter id="filter2453" x="-.12828" y="-.21839" width="1.2566" height="1.4368" style="color-interpolation-filters:sRGB">
   <feGaussianBlur stdDeviation="8.61057"/>
  </filter>
  <filter id="filter2457" x="-.90513" y="-1.0524" width="2.8103" height="3.1047" style="color-interpolation-filters:sRGB">
   <feGaussianBlur stdDeviation="8.61057"/>
  </filter>
  <filter id="filter2461" x="-.90513" y="-1.0524" width="2.8103" height="3.1047" style="color-interpolation-filters:sRGB">
   <feGaussianBlur stdDeviation="8.61057"/>
  </filter>
  <filter id="filter2465" x="-.35454" y="-.30473" width="1.7091" height="1.6095" style="color-interpolation-filters:sRGB">
   <feGaussianBlur stdDeviation="4.7303172"/>
  </filter>
 </defs>
 <g id="cart">
  <path d="m192.49 63.374c-8.5757-0.38636-17.169-0.38634-25.744 8.7e-5 -0.48004 0.02163-0.96073 0.04453-1.4371 0.10776-0.61405 0.08151-1.2233 0.23157-1.7822 0.49863-0.55891 0.26706-1.067 0.65536-1.4265 1.1599-0.45896 0.64426-0.65216 1.4348-0.83893 2.2035-7.1192 29.299-18.557 57.489-24.323 87.085-0.0916 0.47025-0.18256 0.94352-0.35248 1.3915-0.16993 0.44794-0.42486 0.87384-0.79575 1.1771-0.44792 0.36625-1.0348 0.52832-1.6126 0.55948-0.57776 0.0312-1.1544-0.0587-1.7263-0.14639-26.247-4.0233-53.109-3.9296-79.351 0.12033-0.66401 0.10247-1.3335 0.20779-2.0044 0.17149-0.67089-0.0363-1.3526-0.22592-1.8705-0.65395-0.40214-0.33237-0.68481-0.79075-0.88129-1.274-0.19648-0.4833-0.31254-0.99476-0.42966-1.5032-4.4889-19.484-11.73-38.25-16.255-57.726-0.0986-0.42437-0.19614-0.85048-0.23802-1.2841-0.04188-0.43365-0.02676-0.87755 0.09678-1.2953 0.22194-0.75059 0.80707-1.3846 1.5375-1.6659l1.7715-0.16261h104.14" style="fill:none;stroke-linecap:round;stroke-width:2.8333;stroke:#0cf"/>
  <path d="m67.966 116.82 52.203-0.41398" style="fill:none;stroke-linecap:round;stroke-width:2.8333;stroke:#0cf"/>
  <path d="m73.736 134.43 40.662-0.41628" style="fill:none;stroke-linecap:round;stroke-width:2.8333;stroke:#0cf"/>
  <g style="filter:url(#filter2453)">
   <path d="m192.49 63.374c-8.5757-0.38636-17.169-0.38634-25.744 8.7e-5 -0.48004 0.02163-0.96073 0.04453-1.4371 0.10776-0.61405 0.08151-1.2233 0.23157-1.7822 0.49863-0.55891 0.26706-1.067 0.65536-1.4265 1.1599-0.45896 0.64426-0.65216 1.4348-0.83893 2.2035-7.1192 29.299-18.557 57.489-24.323 87.085-0.0916 0.47025-0.18256 0.94352-0.35248 1.3915-0.16993 0.44794-0.42486 0.87384-0.79575 1.1771-0.44792 0.36625-1.0348 0.52832-1.6126 0.55948-0.57776 0.0312-1.1544-0.0587-1.7263-0.14639-26.247-4.0233-53.109-3.9296-79.351 0.12033-0.66401 0.10247-1.3335 0.20779-2.0044 0.17149-0.67089-0.0363-1.3526-0.22592-1.8705-0.65395-0.40214-0.33237-0.68481-0.79075-0.88129-1.274-0.19648-0.4833-0.31254-0.99476-0.42966-1.5032-4.4889-19.484-11.73-38.25-16.255-57.726-0.0986-0.42437-0.19614-0.85048-0.23802-1.2841-0.04188-0.43365-0.02676-0.87755 0.09678-1.2953 0.22194-0.75059 0.80707-1.3846 1.5375-1.6659l1.7715-0.16261h104.14" style="fill:none;stroke-linecap:round;stroke-width:2.8333;stroke:#0cf"/>
   <path d="m67.966 116.82 52.203-0.41398" style="fill:none;stroke-linecap:round;stroke-width:2.8333;stroke:#0cf"/>
   <path d="m73.736 134.43 40.662-0.41628" style="fill:none;stroke-linecap:round;stroke-width:2.8333;stroke:#0cf"/>
  </g>
  <g style="filter:url(#filter2161)">
   <path d="m192.49 63.374c-8.5757-0.38636-17.169-0.38634-25.744 8.7e-5 -0.48004 0.02163-0.96073 0.04453-1.4371 0.10776-0.61405 0.08151-1.2233 0.23157-1.7822 0.49863-0.55891 0.26706-1.067 0.65536-1.4265 1.1599-0.45896 0.64426-0.65216 1.4348-0.83893 2.2035-7.1192 29.299-18.557 57.489-24.323 87.085-0.0916 0.47025-0.18256 0.94352-0.35248 1.3915-0.16993 0.44794-0.42486 0.87384-0.79575 1.1771-0.44792 0.36625-1.0348 0.52832-1.6126 0.55948-0.57776 0.0312-1.1544-0.0587-1.7263-0.14639-26.247-4.0233-53.109-3.9296-79.351 0.12033-0.66401 0.10247-1.3335 0.20779-2.0044 0.17149-0.67089-0.0363-1.3526-0.22592-1.8705-0.65395-0.40214-0.33237-0.68481-0.79075-0.88129-1.274-0.19648-0.4833-0.31254-0.99476-0.42966-1.5032-4.4889-19.484-11.73-38.25-16.255-57.726-0.0986-0.42437-0.19614-0.85048-0.23802-1.2841-0.04188-0.43365-0.02676-0.87755 0.09678-1.2953 0.22194-0.75059 0.80707-1.3846 1.5375-1.6659l1.7715-0.16261h104.14" style="fill:none;stroke-linecap:round;stroke-width:2.8333;stroke:#0cf"/>
   <path d="m67.966 116.82 52.203-0.41398" style="fill:none;stroke-linecap:round;stroke-width:2.8333;stroke:#0cf"/>
   <path d="m73.736 134.43 40.662-0.41628" style="fill:none;stroke-linecap:round;stroke-width:2.8333;stroke:#0cf"/>
  </g>
 </g>
 <g id="left-wheel">
  <path d="m82.569 170.97a11.416 9.8185 0 0 1-11.381 9.8184 11.416 9.8185 0 0 1-11.45-9.7595 11.416 9.8185 0 0 1 11.313-9.877 11.416 9.8185 0 0 1 11.518 9.7002" style="fill:none;stroke-linecap:round;stroke-linejoin:round;stroke-width:2.8333;stroke:#0cf"/>
  <path d="m82.569 170.97a11.416 9.8185 0 0 1-11.381 9.8184 11.416 9.8185 0 0 1-11.45-9.7595 11.416 9.8185 0 0 1 11.313-9.877 11.416 9.8185 0 0 1 11.518 9.7002" style="fill:none;filter:url(#filter2457);stroke-linecap:round;stroke-linejoin:round;stroke-width:2.8333;stroke:#0cf"/>
  <path d="m82.569 170.97a11.416 9.8185 0 0 1-11.381 9.8184 11.416 9.8185 0 0 1-11.45-9.7595 11.416 9.8185 0 0 1 11.313-9.877 11.416 9.8185 0 0 1 11.518 9.7002" style="fill:none;filter:url(#filter2157);stroke-linecap:round;stroke-linejoin:round;stroke-width:2.8333;stroke:#0cf"/>
 </g>
 <g id="right-wheel">
  <path d="m125.5 170.97a11.416 9.8185 0 0 1-11.381 9.8184 11.416 9.8185 0 0 1-11.45-9.7595 11.416 9.8185 0 0 1 11.313-9.877 11.416 9.8185 0 0 1 11.518 9.7002" style="fill:none;stroke-linecap:round;stroke-linejoin:round;stroke-width:2.8333;stroke:#0cf"/>
  <path d="m125.5 170.97a11.416 9.8185 0 0 1-11.381 9.8184 11.416 9.8185 0 0 1-11.45-9.7595 11.416 9.8185 0 0 1 11.313-9.877 11.416 9.8185 0 0 1 11.518 9.7002" style="fill:none;filter:url(#filter2461);stroke-linecap:round;stroke-linejoin:round;stroke-width:2.8333;stroke:#0cf"/>
  <path d="m125.5 170.97a11.416 9.8185 0 0 1-11.381 9.8184 11.416 9.8185 0 0 1-11.45-9.7595 11.416 9.8185 0 0 1 11.313-9.877 11.416 9.8185 0 0 1 11.518 9.7002" style="fill:none;filter:url(#filter2153);stroke-linecap:round;stroke-linejoin:round;stroke-width:2.8333;stroke:#0cf"/>
 </g>
 <g id="tag">
  <g transform="matrix(1.8229 0 0 1.8177 -122.28 -93.032)" style="stroke-width:1.5565">
   <path d="m169.58 130.35c0.39542-0.0311 0.78655-0.11625 1.1591-0.25245 0.65476-0.23939 1.241-0.63056 1.8289-1.0052 4.5475-2.8978 9.4482-5.193 14.174-7.7903l1.2609-0.69303c0.23158-0.0794 0.44155-0.22082 0.60208-0.40563s0.27121-0.41251 0.31738-0.65291c0.0687-0.3575-9e-3 -0.74096-0.2125-1.0431-0.32674-0.59043-0.65349-1.1809-0.98023-1.7713-3.3428-6.0405-6.6856-12.081-10.028-18.122-0.22645-0.40919-0.45289-0.81839-0.67934-1.2276-0.30002-0.29424-0.63631-0.55147-0.99882-0.76401-0.34383-0.20159-0.7112-0.36298-1.0922-0.47983l-1.1474-0.3126c-1.6609-0.4525-3.2901-1.0122-4.8944-1.6365-0.80213-0.31216-1.6078-0.62165-2.4415-0.83586s-1.7032-0.33013-2.5572-0.22287c-0.65492 0.08225-1.2952 0.29786-1.8548 0.64783-0.39143 0.24477-0.74228 0.55426-1.034 0.91209-1.3163 3.2536-2.5326 6.5476-3.6466 9.8759-0.13971 0.41738-0.27781 0.8353-0.4143 1.2538-0.0264 0.38417-0.018 0.77074 0.0253 1.1534 0.0462 0.40858 0.13249 0.8141 0.2799 1.198 0.10331 0.269 0.23587 0.52564 0.36879 0.78131 3.3422 6.4285 7.091 12.639 10.44 19.064 0.19639 0.37678 0.39163 0.7547 0.61489 1.1162 0.266 0.43071 0.57134 0.83711 0.91096 1.2125z" style="fill:none;stroke-width:1.5565;stroke:#00d455"/>
   <path transform="rotate(-28.794)" d="m99.879 166.62a2.7195 2.5364 0 0 1-2.7113 2.5364 2.7195 2.5364 0 0 1-2.7276-2.5212 2.7195 2.5364 0 0 1 2.695-2.5515 2.7195 2.5364 0 0 1 2.7438 2.5058" style="fill:none;stroke-linecap:round;stroke-linejoin:round;stroke-width:1.5565;stroke:#00d455"/>
  </g>
  <g transform="matrix(1.8229 0 0 1.8177 -122.28 -93.032)" style="filter:url(#filter2465);stroke-width:1.5565">
   <path d="m169.58 130.35c0.39542-0.0311 0.78655-0.11625 1.1591-0.25245 0.65476-0.23939 1.241-0.63056 1.8289-1.0052 4.5475-2.8978 9.4482-5.193 14.174-7.7903l1.2609-0.69303c0.23158-0.0794 0.44155-0.22082 0.60208-0.40563s0.27121-0.41251 0.31738-0.65291c0.0687-0.3575-9e-3 -0.74096-0.2125-1.0431-0.32674-0.59043-0.65349-1.1809-0.98023-1.7713-3.3428-6.0405-6.6856-12.081-10.028-18.122-0.22645-0.40919-0.45289-0.81839-0.67934-1.2276-0.30002-0.29424-0.63631-0.55147-0.99882-0.76401-0.34383-0.20159-0.7112-0.36298-1.0922-0.47983l-1.1474-0.3126c-1.6609-0.4525-3.2901-1.0122-4.8944-1.6365-0.80213-0.31216-1.6078-0.62165-2.4415-0.83586s-1.7032-0.33013-2.5572-0.22287c-0.65492 0.08225-1.2952 0.29786-1.8548 0.64783-0.39143 0.24477-0.74228 0.55426-1.034 0.91209-1.3163 3.2536-2.5326 6.5476-3.6466 9.8759-0.13971 0.41738-0.27781 0.8353-0.4143 1.2538-0.0264 0.38417-0.018 0.77074 0.0253 1.1534 0.0462 0.40858 0.13249 0.8141 0.2799 1.198 0.10331 0.269 0.23587 0.52564 0.36879 0.78131 3.3422 6.4285 7.091 12.639 10.44 19.064 0.19639 0.37678 0.39163 0.7547 0.61489 1.1162 0.266 0.43071 0.57134 0.83711 0.91096 1.2125z" style="fill:none;stroke-width:1.5565;stroke:#00d455"/>
   <path transform="rotate(-28.794)" d="m99.879 166.62a2.7195 2.5364 0 0 1-2.7113 2.5364 2.7195 2.5364 0 0 1-2.7276-2.5212 2.7195 2.5364 0 0 1 2.695-2.5515 2.7195 2.5364 0 0 1 2.7438 2.5058" style="fill:none;stroke-linecap:round;stroke-linejoin:round;stroke-width:1.5565;stroke:#00d455"/>
  </g>
  <g transform="matrix(1.8229 0 0 1.8177 -122.28 -93.032)" style="filter:url(#filter2149);stroke-width:1.5565">
   <path d="m169.58 130.35c0.39542-0.0311 0.78655-0.11625 1.1591-0.25245 0.65476-0.23939 1.241-0.63056 1.8289-1.0052 4.5475-2.8978 9.4482-5.193 14.174-7.7903l1.2609-0.69303c0.23158-0.0794 0.44155-0.22082 0.60208-0.40563s0.27121-0.41251 0.31738-0.65291c0.0687-0.3575-9e-3 -0.74096-0.2125-1.0431-0.32674-0.59043-0.65349-1.1809-0.98023-1.7713-3.3428-6.0405-6.6856-12.081-10.028-18.122-0.22645-0.40919-0.45289-0.81839-0.67934-1.2276-0.30002-0.29424-0.63631-0.55147-0.99882-0.76401-0.34383-0.20159-0.7112-0.36298-1.0922-0.47983l-1.1474-0.3126c-1.6609-0.4525-3.2901-1.0122-4.8944-1.6365-0.80213-0.31216-1.6078-0.62165-2.4415-0.83586s-1.7032-0.33013-2.5572-0.22287c-0.65492 0.08225-1.2952 0.29786-1.8548 0.64783-0.39143 0.24477-0.74228 0.55426-1.034 0.91209-1.3163 3.2536-2.5326 6.5476-3.6466 9.8759-0.13971 0.41738-0.27781 0.8353-0.4143 1.2538-0.0264 0.38417-0.018 0.77074 0.0253 1.1534 0.0462 0.40858 0.13249 0.8141 0.2799 1.198 0.10331 0.269 0.23587 0.52564 0.36879 0.78131 3.3422 6.4285 7.091 12.639 10.44 19.064 0.19639 0.37678 0.39163 0.7547 0.61489 1.1162 0.266 0.43071 0.57134 0.83711 0.91096 1.2125z" style="fill:none;stroke-width:1.5565;stroke:#00d455"/>
   <path transform="rotate(-28.794)" d="m99.879 166.62a2.7195 2.5364 0 0 1-2.7113 2.5364 2.7195 2.5364 0 0 1-2.7276-2.5212 2.7195 2.5364 0 0 1 2.695-2.5515 2.7195 2.5364 0 0 1 2.7438 2.5058" style="fill:none;stroke-linecap:round;stroke-linejoin:round;stroke-width:1.5565;stroke:#00d455"/>
  </g>
 </g>
</svg>
