<svg version="1.1" viewBox="0 0 80 80" height="100%" xmlns="http://www.w3.org/2000/svg">
 <defs>
  <filter id="filter1063" x="-.048126" y="-.047514" width="1.0963" height="1.095" style="color-interpolation-filters:sRGB">
   <feGaussianBlur stdDeviation="1.1640006"/>
  </filter>
  <filter id="filter1358" x="-.027638" y="-.027287" width="1.0553" height="1.0546" style="color-interpolation-filters:sRGB">
   <feGaussianBlur stdDeviation="0.66846205"/>
  </filter>
 </defs>
 <g transform="translate(-35 -45)">
  <path d="m48.722 100.28a29.024 29.397 0 0 1 6.2402-41.088 29.024 29.397 0 0 1 40.566 6.3139 29.024 29.397 0 0 1-6.227 41.09 29.024 29.397 0 0 1-40.568-6.3005" style="fill:none;stroke-linecap:round;stroke-linejoin:round;stroke-width:.9731;stroke:#0cf"/>
  <path d="m61.409 57.587c1.8411 0.06192 3.6494 0.83418 4.9672 2.1214 0.11756 0.11483 0.23243 0.23496 0.31632 0.37627s0.13535 0.30689 0.11624 0.47012c-0.01463 0.12497-0.06996 0.24294-0.1456 0.34348-0.07563 0.10055-0.17107 0.18472-0.27208 0.25973-0.30674 0.22778-0.66583 0.37431-1.0282 0.49554-0.36233 0.12123-0.73274 0.21978-1.0866 0.36383-0.67583 0.27512-1.2772 0.71034-1.9525 0.98658-0.12511 0.05117-0.25394 0.09753-0.36496 0.17464-0.05551 0.03855-0.10618 0.08477-0.14564 0.13964-0.03945 0.05487-0.06744 0.11867-0.07614 0.18569-0.011 0.08471 0.0093 0.17174 0.0484 0.24767 0.03913 0.07593 0.09639 0.14139 0.16038 0.19797 0.12799 0.11316 0.28264 0.19213 0.41504 0.3001 0.25013 0.20399 0.40646 0.49834 0.552 0.78642 0.14555 0.28808 0.29224 0.58541 0.53028 0.80338 0.09663 0.08849 0.20605 0.16162 0.31054 0.24066 0.1045 0.07904 0.20568 0.16569 0.27905 0.27424 0.11518 0.17039 0.15334 0.38568 0.1299 0.59001-0.02344 0.20433-0.1049 0.39862-0.21143 0.57455-0.21306 0.35185-0.52419 0.63518-0.74614 0.98149-0.13845 0.21604-0.24022 0.45364-0.32589 0.69552-0.10537 0.2975-0.18845 0.60573-0.34236 0.88128-0.1769 0.3167-0.44046 0.5769-0.72362 0.80364-0.28317 0.22674-0.58864 0.42409-0.87643 0.64493-0.34059 0.26136-0.65576 0.55521-0.94679 0.87082-0.44678 0.4845-0.83591 1.019-1.2676 1.517-0.87802 1.0129-1.9308 1.8709-3.0864 2.5504-1.0567 0.62132-2.1945 1.0928-3.2676 1.6853-0.6882 0.37996-1.3525 0.811-2.0827 1.1023-0.31256 0.12469-0.63571 0.22312-0.94177 0.36301s-0.59932 0.32618-0.80509 0.59245c-0.21677 0.2805-0.32377 0.63751-0.32989 0.99196-0.0094 0.54579 0.22478 1.0958 0.64007 1.4501 0.30883 0.26346 0.70346 0.41375 1.1052 0.47212 0.40172 0.05837 0.81179 0.02902 1.2125-0.03578 0.80146-0.1296 1.5864-0.40069 2.3983-0.39854 0.57468 0.0015 1.1412 0.14091 1.6844 0.32841 1.0328 0.35649 2.0084 0.89427 2.8248 1.6204 0.98121 0.87271 1.7286 2.0337 1.993 3.32 0.11404 0.55478 0.13832 1.1261 0.09732 1.691-0.09882 1.3615-0.57024 2.6658-1.0704 3.9359-0.40795 1.036-0.83806 2.0631-1.2628 3.0924-0.18941 0.45904-0.38099 0.93524-0.36828 1.4317 0.01214 0.47412 0.20949 0.9209 0.39233 1.3585 0.27442 0.65682 0.52347 1.3245 0.73565 2.004 0.26205 0.83919 0.47106 1.7042 0.88683 2.4789 0.45452 0.84683 1.1518 1.5609 1.9853 2.0394 0.46844 0.26893 0.97985 0.46605 1.4156 0.7852 0.21789 0.15958 0.41598 0.35022 0.5611 0.57799s0.23541 0.49451 0.23143 0.76455c-0.0037 0.2515-0.08764 0.49521-0.19147 0.72431-0.09224 0.20354-0.20093 0.39961-0.32466 0.5857" style="fill:none;stroke-linecap:round;stroke:#37c837"/>
  <path d="m81.767 78.77c0.88566-0.19341 1.7901-0.30056 2.6965-0.31945 1.258-0.02622 2.5153 0.11707 3.7731 0.08267 0.85172-0.0233 1.6999-0.12801 2.5519-0.14223 0.85192-0.01423 1.7209 0.0662 2.5064 0.39631 0.70631 0.29683 1.3187 0.78516 1.8487 1.3384 0.53004 0.5532 0.98445 1.1732 1.4456 1.785 0.51358 0.68136 1.054 1.3912 1.2003 2.2318 0.10652 0.61198-0.0075 1.2409-0.1687 1.8408-0.16122 0.5999-0.37043 1.1897-0.45946 1.8045-0.07943 0.54852-0.06192 1.1096-0.17147 1.6529-0.22541 1.1179-0.95968 2.0524-1.6289 2.9758-0.58982 0.81371-1.1447 1.6521-1.7147 2.4798-0.74961 1.0885-1.5268 2.1602-2.3876 3.1629-0.88817 1.0346-1.8641 1.9942-2.7021 3.0699-0.44754 0.57444-0.86422 1.1904-1.4481 1.6256-0.29192 0.21761-0.62469 0.38651-0.98159 0.45858-0.3569 0.0721-0.73892 0.0431-1.0673-0.11419-0.22128-0.10602-0.41356-0.2673-0.57172-0.4549-0.15816-0.18759-0.28323-0.40127-0.38745-0.62341-0.20845-0.44427-0.33491-0.9225-0.5262-1.3744-0.23271-0.54977-0.56472-1.0723-0.64112-1.6643-0.06201-0.48059 0.0511-0.96599 0.19084-1.43 0.13974-0.46399 0.3079-0.92414 0.36029-1.4059 0.04522-0.41584 0.0027-0.83548-0.02825-1.2526-0.03098-0.41714-0.04997-0.84121 0.04084-1.2495 0.08148-0.3664 0.24846-0.70714 0.40931-1.0463 0.3764-0.7936 0.73178-1.6188 0.80097-2.4944 0.01955-0.24747 0.01575-0.49802-0.03075-0.74187-0.0465-0.24385-0.13673-0.48128-0.28013-0.68392-0.23478-0.33177-0.59851-0.55262-0.97811-0.69786s-0.78088-0.22321-1.1738-0.32722c-0.45956-0.12165-0.91236-0.2801-1.3845-0.33587-0.40665-0.04803-0.8182-0.01866-1.2273-0.03658-0.40908-0.01792-0.82992-0.08857-1.1723-0.31313-0.4034-0.26458-0.65141-0.71321-0.80188-1.1716s-0.21866-0.93972-0.35276-1.4031c-0.06404-0.22128-0.14306-0.43821-0.23636-0.64883-0.34763-0.48279-0.51926-1.0895-0.47606-1.6828 0.04319-0.59335 0.30088-1.1688 0.71476-1.5961 0.32069-0.33112 0.72629-0.57049 1.1515-0.74843 0.42523-0.17794 0.87216-0.29749 1.3175-0.41631 0.66322-0.17693 1.3266-0.35344 1.99-0.52952z" style="fill:none;stroke:#37c837"/>
  <path d="m98.222 74.507c-0.34546-0.23214-1.0454-0.39808-1.5449-0.64397-1.3643-0.6716-2.5458-1.6697-3.9494-2.2624-0.26865-0.11344-0.55083-0.26289-0.84366-0.24242-0.18449 0.01289-0.33415 0.15142-0.50275 0.22502m-4.006-10.823c-0.0371 0.47048 0.14649 1.0084-0.11421 1.4072-0.24305 0.37179-0.73298 0.59905-1.1858 0.66484-0.58406 0.08485-1.1409-0.30764-1.7262-0.3845-0.77529-0.10182-1.5811-0.25994-2.3454-0.09897-0.64831 0.13655-1.2383 0.49392-1.7691 0.87558-0.54805 0.39401-0.96506 0.93322-1.4162 1.4273-0.422 0.46216-0.92248 0.88435-1.205 1.4354-0.15123 0.29495-0.1606 0.63893-0.24039 0.95852-0.1479 0.59233-0.45897 1.1686-0.44184 1.7774 0.01399 0.49704 0.2232 0.97939 0.44182 1.4304 0.18597 0.38363 0.4528 0.72935 0.72794 1.0602 0.19492 0.23438 0.48114 0.39653 0.64898 0.6494 0.29985 0.45175 0.29231 1.054 0.6048 1.4978 0.4091 0.58105 0.92477 1.1711 1.6014 1.4381 0.69772 0.27534 1.5247 0.21143 2.263 0.06167 0.68957-0.13988 1.3734-0.43326 1.9078-0.87339 0.56504-0.46535 0.85586-1.1692 1.2554-1.7717 0.25174-0.37963 0.27592-1.0106 0.71872-1.1604 0.41551-0.14053 0.90793 0.16314 1.2389 0.44175 0.27096 0.22811 0.29294 0.63714 0.50455 0.91696 0.34576 0.45722 0.64968 1.3204 1.2293 1.2175 0.58221-0.10335 0.3571-1.0999 0.69506-1.5655 0.20805-0.28664 0.53046-0.47856 0.79417-0.71994" style="fill:none;stroke-linecap:round;stroke:#37c837"/>
  <g transform="translate(.18162 -.13696)" style="filter:url(#filter1358)">
   <path d="m81.767 78.77c0.88566-0.19341 1.7901-0.30056 2.6965-0.31945 1.258-0.02622 2.5153 0.11707 3.7731 0.08267 0.85172-0.0233 1.6999-0.12801 2.5519-0.14223 0.85192-0.01423 1.7209 0.0662 2.5064 0.39631 0.70631 0.29683 1.3187 0.78516 1.8487 1.3384 0.53004 0.5532 0.98445 1.1732 1.4456 1.785 0.51358 0.68136 1.054 1.3912 1.2003 2.2318 0.10652 0.61198-0.0075 1.2409-0.1687 1.8408-0.16122 0.5999-0.37043 1.1897-0.45946 1.8045-0.07943 0.54852-0.06192 1.1096-0.17147 1.6529-0.22541 1.1179-0.95968 2.0524-1.6289 2.9758-0.58982 0.81371-1.1447 1.6521-1.7147 2.4798-0.74961 1.0885-1.5268 2.1602-2.3876 3.1629-0.88817 1.0346-1.8641 1.9942-2.7021 3.0699-0.44754 0.57444-0.86422 1.1904-1.4481 1.6256-0.29192 0.21761-0.62469 0.38651-0.98159 0.45858-0.3569 0.0721-0.73892 0.0431-1.0673-0.11419-0.22128-0.10602-0.41356-0.2673-0.57172-0.4549-0.15816-0.18759-0.28323-0.40127-0.38745-0.62341-0.20845-0.44427-0.33491-0.9225-0.5262-1.3744-0.23271-0.54977-0.56472-1.0723-0.64112-1.6643-0.06201-0.48059 0.0511-0.96599 0.19084-1.43 0.13974-0.46399 0.3079-0.92414 0.36029-1.4059 0.04522-0.41584 0.0027-0.83548-0.02825-1.2526-0.03098-0.41714-0.04997-0.84121 0.04084-1.2495 0.08148-0.3664 0.24846-0.70714 0.40931-1.0463 0.3764-0.7936 0.73178-1.6188 0.80097-2.4944 0.01955-0.24747 0.01575-0.49802-0.03075-0.74187-0.0465-0.24385-0.13673-0.48128-0.28013-0.68392-0.23478-0.33177-0.59851-0.55262-0.97811-0.69786s-0.78088-0.22321-1.1738-0.32722c-0.45956-0.12165-0.91236-0.2801-1.3845-0.33587-0.40665-0.04803-0.8182-0.01866-1.2273-0.03658-0.40908-0.01792-0.82992-0.08857-1.1723-0.31313-0.4034-0.26458-0.65141-0.71321-0.80188-1.1716s-0.21866-0.93972-0.35276-1.4031c-0.06404-0.22128-0.14306-0.43821-0.23636-0.64883-0.34763-0.48279-0.51926-1.0895-0.47606-1.6828 0.04319-0.59335 0.30088-1.1688 0.71476-1.5961 0.32069-0.33112 0.72629-0.57049 1.1515-0.74843 0.42523-0.17794 0.87216-0.29749 1.3175-0.41631 0.66322-0.17693 1.3266-0.35344 1.99-0.52952z" style="fill:none;stroke-width:1.3334px;stroke:#37c837"/>
   <path d="m98.222 74.507c-0.34546-0.23214-1.0454-0.39808-1.5449-0.64397-1.3643-0.6716-2.5458-1.6697-3.9494-2.2624-0.26865-0.11344-0.55083-0.26289-0.84366-0.24242-0.18449 0.01289-0.33415 0.15142-0.50275 0.22502m-4.006-10.823c-0.0371 0.47048 0.14649 1.0084-0.11421 1.4072-0.24305 0.37179-0.73298 0.59905-1.1858 0.66484-0.58406 0.08485-1.1409-0.30764-1.7262-0.3845-0.77529-0.10182-1.5811-0.25994-2.3454-0.09897-0.64831 0.13655-1.2383 0.49392-1.7691 0.87558-0.54805 0.39401-0.96506 0.93322-1.4162 1.4273-0.422 0.46216-0.92248 0.88435-1.205 1.4354-0.15123 0.29495-0.1606 0.63893-0.24039 0.95852-0.1479 0.59233-0.45897 1.1686-0.44184 1.7774 0.01399 0.49704 0.2232 0.97939 0.44182 1.4304 0.18597 0.38363 0.4528 0.72935 0.72794 1.0602 0.19492 0.23438 0.48114 0.39653 0.64898 0.6494 0.29985 0.45175 0.29231 1.054 0.6048 1.4978 0.4091 0.58105 0.92477 1.1711 1.6014 1.4381 0.69772 0.27534 1.5247 0.21143 2.263 0.06167 0.68957-0.13988 1.3734-0.43326 1.9078-0.87339 0.56504-0.46535 0.85586-1.1692 1.2554-1.7717 0.25174-0.37963 0.27592-1.0106 0.71872-1.1604 0.41551-0.14053 0.90793 0.16314 1.2389 0.44175 0.27096 0.22811 0.29294 0.63714 0.50455 0.91696 0.34576 0.45722 0.64968 1.3204 1.2293 1.2175 0.58221-0.10335 0.3571-1.0999 0.69506-1.5655 0.20805-0.28664 0.53046-0.47856 0.79417-0.71994" style="fill:none;stroke-linecap:round;stroke-width:1.2294;stroke:#37c837"/>
   <path d="m61.409 57.587c1.8411 0.06192 3.6494 0.83418 4.9672 2.1214 0.11756 0.11483 0.23243 0.23496 0.31632 0.37627s0.13535 0.30689 0.11624 0.47012c-0.01463 0.12497-0.06996 0.24294-0.1456 0.34348-0.07563 0.10055-0.17107 0.18472-0.27208 0.25973-0.30674 0.22778-0.66583 0.37431-1.0282 0.49554-0.36233 0.12123-0.73274 0.21978-1.0866 0.36383-0.67583 0.27512-1.2772 0.71034-1.9525 0.98658-0.12511 0.05117-0.25394 0.09753-0.36496 0.17464-0.05551 0.03855-0.10618 0.08477-0.14564 0.13964-0.03945 0.05487-0.06744 0.11867-0.07614 0.18569-0.011 0.08471 0.0093 0.17174 0.0484 0.24767 0.03913 0.07593 0.09639 0.14139 0.16038 0.19797 0.12799 0.11316 0.28264 0.19213 0.41504 0.3001 0.25013 0.20399 0.40646 0.49834 0.552 0.78642 0.14555 0.28808 0.29224 0.58541 0.53028 0.80338 0.09663 0.08849 0.20605 0.16162 0.31054 0.24066 0.1045 0.07904 0.20568 0.16569 0.27905 0.27424 0.11518 0.17039 0.15334 0.38568 0.1299 0.59001-0.02344 0.20433-0.1049 0.39862-0.21143 0.57455-0.21306 0.35185-0.52419 0.63518-0.74614 0.98149-0.13845 0.21604-0.24022 0.45364-0.32589 0.69552-0.10537 0.2975-0.18845 0.60573-0.34236 0.88128-0.1769 0.3167-0.44046 0.5769-0.72362 0.80364-0.28317 0.22674-0.58864 0.42409-0.87643 0.64493-0.34059 0.26136-0.65576 0.55521-0.94679 0.87082-0.44678 0.4845-0.83591 1.019-1.2676 1.517-0.87802 1.0129-1.9308 1.8709-3.0864 2.5504-1.0567 0.62132-2.1945 1.0928-3.2676 1.6853-0.6882 0.37996-1.3525 0.811-2.0827 1.1023-0.31256 0.12469-0.63571 0.22312-0.94177 0.36301s-0.59932 0.32618-0.80509 0.59245c-0.21677 0.2805-0.32377 0.63751-0.32989 0.99196-0.0094 0.54579 0.22478 1.0958 0.64007 1.4501 0.30883 0.26346 0.70346 0.41375 1.1052 0.47212 0.40172 0.05837 0.81179 0.02902 1.2125-0.03578 0.80146-0.1296 1.5864-0.40069 2.3983-0.39854 0.57468 0.0015 1.1412 0.14091 1.6844 0.32841 1.0328 0.35649 2.0084 0.89427 2.8248 1.6204 0.98121 0.87271 1.7286 2.0337 1.993 3.32 0.11404 0.55478 0.13832 1.1261 0.09732 1.691-0.09882 1.3615-0.57024 2.6658-1.0704 3.9359-0.40795 1.036-0.83806 2.0631-1.2628 3.0924-0.18941 0.45904-0.38099 0.93524-0.36828 1.4317 0.01214 0.47412 0.20949 0.9209 0.39233 1.3585 0.27442 0.65683 0.52347 1.3245 0.73565 2.004 0.26205 0.83919 0.47106 1.7042 0.88683 2.4789 0.45452 0.84683 1.1518 1.5609 1.9853 2.0394 0.46844 0.26893 0.97985 0.46605 1.4156 0.7852 0.21789 0.15958 0.41598 0.35022 0.5611 0.57799s0.23541 0.49451 0.23143 0.76455c-0.0037 0.2515-0.08764 0.49521-0.19147 0.72431-0.09224 0.20354-0.20093 0.39961-0.32466 0.5857" style="fill:none;stroke-linecap:round;stroke-width:1.3219px;stroke:#37c837"/>
   <path d="m48.722 100.28a29.024 29.397 0 0 1 6.2402-41.088 29.024 29.397 0 0 1 40.566 6.3139 29.024 29.397 0 0 1-6.227 41.09 29.024 29.397 0 0 1-40.568-6.3005" style="fill:none;stroke-linecap:round;stroke-linejoin:round;stroke-width:.9731;stroke:#0cf"/>
  </g>
  <g style="filter:url(#filter1063)">
   <path d="m48.722 100.28a29.024 29.397 0 0 1 6.2402-41.088 29.024 29.397 0 0 1 40.566 6.3139 29.024 29.397 0 0 1-6.227 41.09 29.024 29.397 0 0 1-40.568-6.3005" style="fill:none;stroke-linecap:round;stroke-linejoin:round;stroke-width:.9731;stroke:#0cf"/>
   <path d="m61.409 57.587c1.8411 0.06192 3.6494 0.83418 4.9672 2.1214 0.11756 0.11483 0.23243 0.23496 0.31632 0.37627s0.13535 0.30689 0.11624 0.47012c-0.01463 0.12497-0.06996 0.24294-0.1456 0.34348-0.07563 0.10055-0.17107 0.18472-0.27208 0.25973-0.30674 0.22778-0.66583 0.37431-1.0282 0.49554-0.36233 0.12123-0.73274 0.21978-1.0866 0.36383-0.67583 0.27512-1.2772 0.71034-1.9525 0.98658-0.12511 0.05117-0.25394 0.09753-0.36496 0.17464-0.05551 0.03855-0.10618 0.08477-0.14564 0.13964-0.03945 0.05487-0.06744 0.11867-0.07614 0.18569-0.011 0.08471 0.0093 0.17174 0.0484 0.24767 0.03913 0.07593 0.09639 0.14139 0.16038 0.19797 0.12799 0.11316 0.28264 0.19213 0.41504 0.3001 0.25013 0.20399 0.40646 0.49834 0.552 0.78642 0.14555 0.28808 0.29224 0.58541 0.53028 0.80338 0.09663 0.08849 0.20605 0.16162 0.31054 0.24066 0.1045 0.07904 0.20568 0.16569 0.27905 0.27424 0.11518 0.17039 0.15334 0.38568 0.1299 0.59001-0.02344 0.20433-0.1049 0.39862-0.21143 0.57455-0.21306 0.35185-0.52419 0.63518-0.74614 0.98149-0.13845 0.21604-0.24022 0.45364-0.32589 0.69552-0.10537 0.2975-0.18845 0.60573-0.34236 0.88128-0.1769 0.3167-0.44046 0.5769-0.72362 0.80364-0.28317 0.22674-0.58864 0.42409-0.87643 0.64493-0.34059 0.26136-0.65576 0.55521-0.94679 0.87082-0.44678 0.4845-0.83591 1.019-1.2676 1.517-0.87802 1.0129-1.9308 1.8709-3.0864 2.5504-1.0567 0.62132-2.1945 1.0928-3.2676 1.6853-0.6882 0.37996-1.3525 0.811-2.0827 1.1023-0.31256 0.12469-0.63571 0.22312-0.94177 0.36301s-0.59932 0.32618-0.80509 0.59245c-0.21677 0.2805-0.32377 0.63751-0.32989 0.99196-0.0094 0.54579 0.22478 1.0958 0.64007 1.4501 0.30883 0.26346 0.70346 0.41375 1.1052 0.47212 0.40172 0.05837 0.81179 0.02902 1.2125-0.03578 0.80146-0.1296 1.5864-0.40069 2.3983-0.39854 0.57468 0.0015 1.1412 0.14091 1.6844 0.32841 1.0328 0.35649 2.0084 0.89427 2.8248 1.6204 0.98121 0.87271 1.7286 2.0337 1.993 3.32 0.11404 0.55478 0.13832 1.1261 0.09732 1.691-0.09882 1.3615-0.57024 2.6658-1.0704 3.9359-0.40795 1.036-0.83806 2.0631-1.2628 3.0924-0.18941 0.45904-0.38099 0.93524-0.36828 1.4317 0.01214 0.47412 0.20949 0.9209 0.39233 1.3585 0.27442 0.65683 0.52347 1.3245 0.73565 2.004 0.26205 0.83919 0.47106 1.7042 0.88683 2.4789 0.45452 0.84683 1.1518 1.5609 1.9853 2.0394 0.46844 0.26893 0.97985 0.46605 1.4156 0.7852 0.21789 0.15958 0.41598 0.35022 0.5611 0.57799s0.23541 0.49451 0.23143 0.76455c-0.0037 0.2515-0.08764 0.49521-0.19147 0.72431-0.09224 0.20354-0.20093 0.39961-0.32466 0.5857" style="fill:none;stroke-linecap:round;stroke-width:1.3219px;stroke:#37c837"/>
   <path d="m81.767 78.77c0.88566-0.19341 1.7901-0.30056 2.6965-0.31945 1.258-0.02622 2.5153 0.11707 3.7731 0.08267 0.85172-0.0233 1.6999-0.12801 2.5519-0.14223 0.85192-0.01423 1.7209 0.0662 2.5064 0.39631 0.70631 0.29683 1.3187 0.78516 1.8487 1.3384 0.53004 0.5532 0.98445 1.1732 1.4456 1.785 0.51358 0.68136 1.054 1.3912 1.2003 2.2318 0.10652 0.61198-0.0075 1.2409-0.1687 1.8408-0.16122 0.5999-0.37043 1.1897-0.45946 1.8045-0.07943 0.54852-0.06192 1.1096-0.17147 1.6529-0.22541 1.1179-0.95968 2.0524-1.6289 2.9758-0.58982 0.81371-1.1447 1.6521-1.7147 2.4798-0.74961 1.0885-1.5268 2.1602-2.3876 3.1629-0.88817 1.0346-1.8641 1.9942-2.7021 3.0699-0.44754 0.57444-0.86422 1.1904-1.4481 1.6256-0.29192 0.21761-0.62469 0.38651-0.98159 0.45858-0.3569 0.0721-0.73892 0.0431-1.0673-0.11419-0.22128-0.10602-0.41356-0.2673-0.57172-0.4549-0.15816-0.18759-0.28323-0.40127-0.38745-0.62341-0.20845-0.44427-0.33491-0.9225-0.5262-1.3744-0.23271-0.54977-0.56472-1.0723-0.64112-1.6643-0.06201-0.48059 0.0511-0.96599 0.19084-1.43 0.13974-0.46399 0.3079-0.92414 0.36029-1.4059 0.04522-0.41584 0.0027-0.83548-0.02825-1.2526-0.03098-0.41714-0.04997-0.84121 0.04084-1.2495 0.08148-0.3664 0.24846-0.70714 0.40931-1.0463 0.3764-0.7936 0.73178-1.6188 0.80097-2.4944 0.01955-0.24747 0.01575-0.49802-0.03075-0.74187-0.0465-0.24385-0.13673-0.48128-0.28013-0.68392-0.23478-0.33177-0.59851-0.55262-0.97811-0.69786s-0.78088-0.22321-1.1738-0.32722c-0.45956-0.12165-0.91236-0.2801-1.3845-0.33587-0.40665-0.04803-0.8182-0.01866-1.2273-0.03658-0.40908-0.01792-0.82992-0.08857-1.1723-0.31313-0.4034-0.26458-0.65141-0.71321-0.80188-1.1716s-0.21866-0.93972-0.35276-1.4031c-0.06404-0.22128-0.14306-0.43821-0.23636-0.64883-0.34763-0.48279-0.51926-1.0895-0.47606-1.6828 0.04319-0.59335 0.30088-1.1688 0.71476-1.5961 0.32069-0.33112 0.72629-0.57049 1.1515-0.74843 0.42523-0.17794 0.87216-0.29749 1.3175-0.41631 0.66322-0.17693 1.3266-0.35344 1.99-0.52952z" style="fill:none;stroke-width:1.3334px;stroke:#37c837"/>
   <path d="m98.222 74.507c-0.34546-0.23214-1.0454-0.39808-1.5449-0.64397-1.3643-0.6716-2.5458-1.6697-3.9494-2.2624-0.26865-0.11344-0.55083-0.26289-0.84366-0.24242-0.18449 0.01289-0.33415 0.15142-0.50275 0.22502m-4.006-10.823c-0.0371 0.47048 0.14649 1.0084-0.11421 1.4072-0.24305 0.37179-0.73298 0.59905-1.1858 0.66484-0.58406 0.08485-1.1409-0.30764-1.7262-0.3845-0.77529-0.10182-1.5811-0.25994-2.3454-0.09897-0.64831 0.13655-1.2383 0.49392-1.7691 0.87558-0.54805 0.39401-0.96506 0.93322-1.4162 1.4273-0.422 0.46216-0.92248 0.88435-1.205 1.4354-0.15123 0.29495-0.1606 0.63893-0.24039 0.95852-0.1479 0.59233-0.45897 1.1686-0.44184 1.7774 0.01399 0.49704 0.2232 0.97939 0.44182 1.4304 0.18597 0.38363 0.4528 0.72935 0.72794 1.0602 0.19492 0.23438 0.48114 0.39653 0.64898 0.6494 0.29985 0.45175 0.29231 1.054 0.6048 1.4978 0.4091 0.58105 0.92477 1.1711 1.6014 1.4381 0.69772 0.27534 1.5247 0.21143 2.263 0.06167 0.68957-0.13988 1.3734-0.43326 1.9078-0.87339 0.56504-0.46535 0.85586-1.1692 1.2554-1.7717 0.25174-0.37963 0.27592-1.0106 0.71872-1.1604 0.41551-0.14053 0.90793 0.16314 1.2389 0.44175 0.27096 0.22811 0.29294 0.63714 0.50455 0.91696 0.34576 0.45722 0.64968 1.3204 1.2293 1.2175 0.58221-0.10335 0.3571-1.0999 0.69506-1.5655 0.20805-0.28664 0.53046-0.47856 0.79417-0.71994" style="fill:none;stroke-linecap:round;stroke-width:1.2294;stroke:#37c837"/>
  </g>
 </g>
</svg>
